<?xml version="1.0" encoding="utf-8"?>
<!-- Generator: Adobe Illustrator 17.0.0, SVG Export Plug-In . SVG Version: 6.00 Build 0)  -->
<!DOCTYPE svg PUBLIC "-//W3C//DTD SVG 1.1//EN" "http://www.w3.org/Graphics/SVG/1.1/DTD/svg11.dtd">
<svg version="1.1" id="Calque_1" xmlns="http://www.w3.org/2000/svg" xmlns:xlink="http://www.w3.org/1999/xlink" x="0px" y="0px"
	 width="333.208px" height="111.561px" viewBox="0 0 333.208 111.561" enable-background="new 0 0 333.208 111.561"
	 xml:space="preserve">
<g>
	<g>
		<g>
			<path fill="#3C3C3B" d="M139.044,79.923c-1.689,7.632-5.534,9.205-15.613,9.205h-16.08c-8.564,0-12.118-1.107-12.118-5.884
				c0-0.932,0.117-2.039,0.408-3.32l0.932-4.253h7.923l-0.524,2.447c-0.175,0.874-0.291,1.631-0.291,2.272
				c0,2.68,1.806,3.263,6.875,3.263h12.991c5.01,0,7.166-1.049,7.981-5.069l0.35-1.748c0.117-0.699,0.233-1.282,0.233-1.806
				c0-2.039-1.223-2.68-3.262-2.68h-15.613l1.049-5.068h15.438c2.796,0,4.428-1.282,5.01-4.253l0.35-1.806
				c0.117-0.699,0.233-1.34,0.233-1.864c0-2.563-1.806-3.262-6-3.262h-12.816c-6.117,0-8.04,0.932-9.03,5.534l-0.524,2.389h-7.923
				l0.874-4.194c1.573-7.632,5.36-9.205,15.613-9.205h16.079c8.389,0,11.827,1.166,11.827,5.826c0,0.99-0.175,2.097-0.408,3.379
				l-0.757,3.787c-0.757,3.845-3.205,5.535-5.243,6.117c1.631,0.408,3.087,1.573,3.087,4.369c0,0.641-0.058,1.34-0.233,2.098
				L139.044,79.923z"/>
			<path fill="#3C3C3B" d="M157.276,89.128l-9.962-38.509h8.972l7.573,31.809l21.381-31.809h8.331L167.18,89.128H157.276z"/>
			<path fill="#3C3C3B" d="M200.909,101.07l1.165-5.476h9.904c3.495,0,5.418-0.932,6.176-4.661l0.523-2.563H198.23
				c-8.563,0-12.06-1.049-12.06-5.651c0-0.932,0.117-1.981,0.408-3.205l2.155-10.195c1.515-7.224,5.302-8.797,15.438-8.797h28.372
				l-6.758,31.634c-1.632,7.516-5.186,8.914-12.293,8.914H200.909z M223.455,65.999h-19.517c-5.068,0-6.758,0.757-7.573,4.603
				l-1.689,7.923c-0.116,0.583-0.175,1.107-0.175,1.573c0,2.388,1.689,3.029,5.768,3.029h19.517L223.455,65.999z"/>
			<path fill="#3C3C3B" d="M232.832,89.128l6.059-28.604h7.924l-0.699,3.262c1.106-1.223,3.263-3.262,9.496-3.262h14.623
				l-1.166,5.476h-18.176c-3.671,0-5.36,1.573-6.176,4.369l-3.962,18.759H232.832z"/>
			<path fill="#3C3C3B" d="M268.95,89.128l6.059-28.604h8.04l-6.059,28.604H268.95z M276.116,56.503l1.456-7.107h7.749l-1.457,7.107
				H276.116z"/>
			<path fill="#3C3C3B" d="M296.68,89.128c-8.563,0-12.176-0.99-12.176-5.709c0-0.874,0.175-1.922,0.408-3.087l2.33-11.011
				c1.515-7.224,5.709-8.797,15.496-8.797h20.449l2.097-9.904h7.924l-8.156,38.509H296.68z M322.022,65.999h-19.167
				c-4.952,0-7.282,1.049-8.04,4.777l-1.748,8.331c-0.116,0.583-0.175,1.107-0.175,1.573c0,2.389,1.748,2.971,6.176,2.971h19.167
				L322.022,65.999z"/>
		</g>
	</g>
	<g>
		<g>
			<path fill="#B2B2B2" d="M150.072,14.415l-21.073,26.853h-25.132L83.534,1.135L100.116,0l18.269,30.757l19.782-22.535
				L150.072,14.415z"/>
		</g>
		<g>
			<path fill="#706F6F" d="M78.511,2.047l19.856,39.221l-16.02,14.295L22.965,35.368l11.302-11.474l45.964,15.035L66.091,5.487
				L78.511,2.047z"/>
		</g>
		<g>
			<path fill="#3C3C3B" d="M81.014,59.136L19.748,39.41c-2.838,3.767-5.402,7.741-7.672,11.904l49.37,17.271L0.585,87.615
				C0.189,91.142,0,94.737,0,98.367c0,4.473,0.292,8.876,0.877,13.194L77.61,85.17L81.014,59.136z"/>
		</g>
	</g>
</g>
</svg>
